<svg width="48" height="49" xmlns="http://www.w3.org/2000/svg" xmlns:xlink="http://www.w3.org/1999/xlink" overflow="hidden"><defs><filter id="fx0" x="-10%" y="-10%" width="120%" height="120%" filterUnits="userSpaceOnUse" primitiveUnits="userSpaceOnUse"><feComponentTransfer color-interpolation-filters="sRGB"><feFuncR type="discrete" tableValues="0 0"/><feFuncG type="discrete" tableValues="0 0"/><feFuncB type="discrete" tableValues="0 0"/><feFuncA type="linear" slope="0.4" intercept="0"/></feComponentTransfer><feGaussianBlur stdDeviation="1.77778 1.77778"/></filter><clipPath id="clip1"><rect x="73" y="233" width="48" height="49"/></clipPath><clipPath id="clip2"><rect x="3" y="3" width="45" height="45"/></clipPath><clipPath id="clip3"><rect x="0" y="0" width="51" height="51"/></clipPath><clipPath id="clip4"><rect x="7" y="7" width="37" height="37"/></clipPath><clipPath id="clip5"><rect x="7" y="7" width="37" height="37"/></clipPath><clipPath id="clip6"><rect x="7" y="7" width="37" height="37"/></clipPath><clipPath id="clip7"><rect x="78" y="235" width="37" height="37"/></clipPath><clipPath id="clip8"><rect x="78" y="235" width="37" height="37"/></clipPath><clipPath id="clip9"><rect x="78" y="235" width="37" height="37"/></clipPath></defs><g clip-path="url(#clip1)" transform="translate(-73 -233)"><g clip-path="url(#clip2)" filter="url(#fx0)" transform="translate(71 232)"><g clip-path="url(#clip3)"><g clip-path="url(#clip4)"><g clip-path="url(#clip5)"><g clip-path="url(#clip6)"><path d="M16.6354 34.4031C17.4062 35.174 17.4062 36.3687 16.6354 37.1396L13.3594 38.2188 12.7812 37.6406 13.8604 34.3646C14.6698 33.6323 15.8646 33.6323 16.6354 34.4031ZM31.7823 14.2844 12.5115 33.5938 10.0833 40.9167 17.4448 38.4885 36.7156 19.2177" fill="#F2F2F2"/><path d="M40.4927 13.2437 37.7562 10.5073C37.1396 9.89062 36.176 9.89062 35.5594 10.5073L32.8615 13.2052 37.7562 18.1 40.4542 15.4021C41.1094 14.824 41.1094 13.8604 40.4927 13.2437Z" fill="#F2F2F2"/></g></g></g></g></g><g clip-path="url(#clip7)"><g clip-path="url(#clip8)"><g clip-path="url(#clip9)"><path d="M87.6354 262.403C88.4062 263.174 88.4062 264.369 87.6354 265.14L84.3594 266.219 83.7812 265.641 84.8604 262.365C85.6698 261.632 86.8646 261.632 87.6354 262.403ZM102.782 242.284 83.5115 261.594 81.0833 268.917 88.4448 266.489 107.716 247.218" fill="#F2F2F2"/><path d="M111.493 241.244 108.756 238.507C108.14 237.891 107.176 237.891 106.559 238.507L103.861 241.205 108.756 246.1 111.454 243.402C112.109 242.824 112.109 241.86 111.493 241.244Z" fill="#F2F2F2"/></g></g></g></g></svg>