<svg width="54" height="54" xmlns="http://www.w3.org/2000/svg" xmlns:xlink="http://www.w3.org/1999/xlink" overflow="hidden"><defs><filter id="fx0" x="-10%" y="-10%" width="120%" height="120%" filterUnits="userSpaceOnUse" primitiveUnits="userSpaceOnUse"><feComponentTransfer color-interpolation-filters="sRGB"><feFuncR type="discrete" tableValues="0 0"/><feFuncG type="discrete" tableValues="0 0"/><feFuncB type="discrete" tableValues="0 0"/><feFuncA type="linear" slope="0.4" intercept="0"/></feComponentTransfer><feGaussianBlur stdDeviation="1.77778 1.77778"/></filter><clipPath id="clip1"><rect x="70" y="129" width="54" height="54"/></clipPath><clipPath id="clip2"><rect x="3" y="7" width="49" height="41"/></clipPath><clipPath id="clip3"><rect x="0" y="0" width="56" height="56"/></clipPath><clipPath id="clip4"><rect x="7" y="7" width="42" height="42"/></clipPath><clipPath id="clip5"><rect x="7" y="7" width="42" height="42"/></clipPath><clipPath id="clip6"><rect x="7" y="7" width="42" height="42"/></clipPath><clipPath id="clip7"><rect x="76" y="131" width="42" height="42"/></clipPath><clipPath id="clip8"><rect x="76" y="131" width="42" height="42"/></clipPath><clipPath id="clip9"><rect x="76" y="131" width="42" height="42"/></clipPath></defs><g clip-path="url(#clip1)" transform="translate(-70 -129)"><g clip-path="url(#clip2)" filter="url(#fx0)" transform="translate(69 128)"><g clip-path="url(#clip3)"><g clip-path="url(#clip4)"><g clip-path="url(#clip5)"><g clip-path="url(#clip6)"><path d="M42.4375 40.25 13.5625 40.25C12.6 40.25 11.8125 39.4625 11.8125 38.5L11.8125 17.5C11.8125 16.5375 12.6 15.75 13.5625 15.75L21.7875 15.75C22.1375 15.75 22.4875 15.8375 22.75 16.0563L27.5625 19.25 42.4375 19.25C43.4 19.25 44.1875 20.0375 44.1875 21L44.1875 38.5C44.1875 39.4625 43.4 40.25 42.4375 40.25Z" fill="#F2F2F2"/></g></g></g></g></g><g clip-path="url(#clip7)"><g clip-path="url(#clip8)"><g clip-path="url(#clip9)"><path d="M111.438 164.25 82.5625 164.25C81.6 164.25 80.8125 163.462 80.8125 162.5L80.8125 141.5C80.8125 140.538 81.6 139.75 82.5625 139.75L90.7875 139.75C91.1375 139.75 91.4875 139.837 91.75 140.056L96.5625 143.25 111.438 143.25C112.4 143.25 113.188 144.038 113.188 145L113.188 162.5C113.188 163.462 112.4 164.25 111.438 164.25Z" fill="#F2F2F2"/></g></g></g></g></svg>