<svg width="59" height="59" xmlns="http://www.w3.org/2000/svg" xmlns:xlink="http://www.w3.org/1999/xlink" overflow="hidden"><defs><filter id="fx0" x="-10%" y="-10%" width="120%" height="120%" filterUnits="userSpaceOnUse" primitiveUnits="userSpaceOnUse"><feComponentTransfer color-interpolation-filters="sRGB"><feFuncR type="discrete" tableValues="0 0"/><feFuncG type="discrete" tableValues="0 0"/><feFuncB type="discrete" tableValues="0 0"/><feFuncA type="linear" slope="0.4" intercept="0"/></feComponentTransfer><feGaussianBlur stdDeviation="1.77778 1.77778"/></filter><clipPath id="clip1"><rect x="66" y="235" width="59" height="59"/></clipPath><clipPath id="clip2"><rect x="13" y="1" width="35" height="57"/></clipPath><clipPath id="clip3"><rect x="0" y="0" width="61" height="61"/></clipPath><clipPath id="clip4"><rect x="6" y="6" width="48" height="48"/></clipPath><clipPath id="clip5"><rect x="6" y="6" width="48" height="48"/></clipPath><clipPath id="clip6"><rect x="6" y="6" width="48" height="48"/></clipPath><clipPath id="clip7"><rect x="70" y="238" width="47" height="47"/></clipPath><clipPath id="clip8"><rect x="70" y="238" width="47" height="47"/></clipPath><clipPath id="clip9"><rect x="70" y="238" width="47" height="47"/></clipPath></defs><g clip-path="url(#clip1)" transform="translate(-66 -235)"><g clip-path="url(#clip2)" filter="url(#fx0)" transform="translate(66 234)"><g clip-path="url(#clip3)"><g clip-path="url(#clip4)"><g clip-path="url(#clip5)"><g clip-path="url(#clip6)"><path d="M30.3284 50.8909C25.1878 50.8909 21.0263 46.7295 21.0263 41.5888L21.0263 16.6201C21.0263 12.8503 24.1107 9.76593 27.8805 9.76593 31.6503 9.76593 34.7347 12.8503 34.7347 16.6201L34.7347 39.6305C34.7347 42.0784 32.7763 44.0368 30.3284 44.0368 27.8805 44.0368 25.9222 42.0784 25.9222 39.6305L25.9222 27.8805 28.8597 27.8805 28.8597 39.6305C28.8597 40.4628 29.4961 41.0993 30.3284 41.0993 31.1607 41.0993 31.7972 40.4628 31.7972 39.6305L31.7972 16.6201C31.7972 14.4659 30.0347 12.7034 27.8805 12.7034 25.7263 12.7034 23.9638 14.4659 23.9638 16.6201L23.9638 41.5888C23.9638 45.1138 26.8034 47.9534 30.3284 47.9534 33.8534 47.9534 36.693 45.1138 36.693 41.5888L36.693 31.3076 39.6305 31.3076 39.6305 41.5888C39.6305 46.7295 35.4691 50.8909 30.3284 50.8909Z" fill="#F2F2F2"/></g></g></g></g></g><g clip-path="url(#clip7)"><g clip-path="url(#clip8)"><g clip-path="url(#clip9)"><path d="M93.5 282.062C88.3594 282.062 84.1979 277.901 84.1979 272.76L84.1979 247.792C84.1979 244.022 87.2823 240.938 91.0521 240.938 94.8219 240.938 97.9062 244.022 97.9062 247.792L97.9062 270.802C97.9062 273.25 95.9479 275.208 93.5 275.208 91.0521 275.208 89.0938 273.25 89.0938 270.802L89.0938 259.052 92.0312 259.052 92.0312 270.802C92.0312 271.634 92.6677 272.271 93.5 272.271 94.3323 272.271 94.9688 271.634 94.9688 270.802L94.9688 247.792C94.9688 245.637 93.2063 243.875 91.0521 243.875 88.8979 243.875 87.1354 245.637 87.1354 247.792L87.1354 272.76C87.1354 276.285 89.975 279.125 93.5 279.125 97.025 279.125 99.8646 276.285 99.8646 272.76L99.8646 262.479 102.802 262.479 102.802 272.76C102.802 277.901 98.6406 282.062 93.5 282.062Z" fill="#F2F2F2"/></g></g></g></g></svg>