<svg width="59" height="58" xmlns="http://www.w3.org/2000/svg" xmlns:xlink="http://www.w3.org/1999/xlink" overflow="hidden"><defs><filter id="fx0" x="-10%" y="-10%" width="120%" height="120%" filterUnits="userSpaceOnUse" primitiveUnits="userSpaceOnUse"><feComponentTransfer color-interpolation-filters="sRGB"><feFuncR type="discrete" tableValues="0 0"/><feFuncG type="discrete" tableValues="0 0"/><feFuncB type="discrete" tableValues="0 0"/><feFuncA type="linear" slope="0.4" intercept="0"/></feComponentTransfer><feGaussianBlur stdDeviation="1.77778 1.77778"/></filter><clipPath id="clip1"><rect x="67" y="76" width="59" height="58"/></clipPath><clipPath id="clip2"><rect x="1" y="9" width="59" height="41"/></clipPath><clipPath id="clip3"><rect x="0" y="0" width="61" height="60"/></clipPath><clipPath id="clip4"><rect x="6" y="7" width="48" height="47"/></clipPath><clipPath id="clip5"><rect x="6" y="7" width="48" height="47"/></clipPath><clipPath id="clip6"><rect x="6" y="7" width="48" height="47"/></clipPath><clipPath id="clip7"><rect x="72" y="78" width="48" height="47"/></clipPath><clipPath id="clip8"><rect x="72" y="78" width="48" height="47"/></clipPath><clipPath id="clip9"><rect x="72" y="78" width="48" height="47"/></clipPath></defs><g clip-path="url(#clip1)" transform="translate(-67 -76)"><g clip-path="url(#clip2)" filter="url(#fx0)" transform="translate(66 75)"><g clip-path="url(#clip3)"><g clip-path="url(#clip4)"><g clip-path="url(#clip5)"><g clip-path="url(#clip6)"><path d="M18.2083 30.6667 27.7917 30.6667C28.6062 30.6667 29.2292 31.2896 29.2292 32.1042 29.2292 32.9187 28.6062 33.5417 27.7917 33.5417L18.2083 33.5417C17.3937 33.5417 16.7708 32.9187 16.7708 32.1042 16.7708 31.2896 17.3937 30.6667 18.2083 30.6667Z" fill="#F2F2F2" transform="matrix(6.12323e-17 1 -1.02174 6.25635e-17 53.9999 7.00005)"/><path d="M18.2083 35.4583 27.7917 35.4583C28.6062 35.4583 29.2292 36.0812 29.2292 36.8958 29.2292 37.7104 28.6062 38.3333 27.7917 38.3333L18.2083 38.3333C17.3937 38.3333 16.7708 37.7104 16.7708 36.8958 16.7708 36.0812 17.3937 35.4583 18.2083 35.4583Z" fill="#F2F2F2" transform="matrix(6.12323e-17 1 -1.02174 6.25635e-17 53.9999 7.00005)"/><path d="M19.8854 40.25C20.0292 41.8792 21.3708 43.125 23 43.125 24.6292 43.125 25.9708 41.8792 26.1146 40.25L19.8854 40.25Z" fill="#F2F2F2" transform="matrix(6.12323e-17 1 -1.02174 6.25635e-17 53.9999 7.00005)"/><path d="M23 2.875C23 2.875 23 2.875 23 2.875 23 2.875 23 2.875 23 2.875 16.1958 2.92292 10.6854 8.38542 10.5417 15.1896L10.5417 15.6208C10.5896 17.1063 10.8771 18.5438 11.4042 19.9333 11.9312 21.2271 12.65 22.425 13.5604 23.4792 14.7104 24.725 15.9562 27.1687 16.4833 28.2229 16.6271 28.5583 16.9625 28.75 17.3458 28.75L28.6542 28.75C29.0375 28.75 29.3729 28.5583 29.5167 28.2229 30.0437 27.1687 31.2896 24.725 32.4396 23.4792 33.35 22.425 34.1167 21.2271 34.5958 19.9333 35.1229 18.5438 35.4104 17.1063 35.4583 15.6208L35.4583 15.1896C35.3146 8.38542 29.8042 2.92292 23 2.875ZM32.5833 15.5729C32.5354 16.7229 32.2958 17.8729 31.9125 18.9271 31.5292 19.8854 31.0021 20.7958 30.2833 21.5625 29.1812 22.9042 28.2229 24.3417 27.5042 25.875L23 25.875 18.5438 25.875C17.7771 24.3417 16.8187 22.9042 15.7646 21.5625 15.0938 20.7958 14.5187 19.8854 14.1354 18.9271 13.7042 17.8729 13.5125 16.7229 13.4646 15.5729L13.4646 15.1896C13.5604 9.96667 17.825 5.75 23.0479 5.70208L23.0479 5.70208 23.0479 5.70208C23.0479 5.70208 23.0479 5.70208 23.0479 5.70208 23.0479 5.70208 23.0479 5.70208 23.0479 5.70208L23.0479 5.70208 23.0479 5.70208C28.2708 5.75 32.5354 9.91875 32.6312 15.1896L32.6312 15.5729Z" fill="#F2F2F2" transform="matrix(6.12323e-17 1 -1.02174 6.25635e-17 53.9999 7.00005)"/></g></g></g></g></g><g clip-path="url(#clip7)"><g clip-path="url(#clip8)"><g clip-path="url(#clip9)"><path d="M18.2083 30.6667 27.7917 30.6667C28.6062 30.6667 29.2292 31.2896 29.2292 32.1042 29.2292 32.9187 28.6062 33.5417 27.7917 33.5417L18.2083 33.5417C17.3937 33.5417 16.7708 32.9187 16.7708 32.1042 16.7708 31.2896 17.3937 30.6667 18.2083 30.6667Z" fill="#F2F2F2" transform="matrix(6.12323e-17 1 -1.02174 6.25635e-17 120 78.0001)"/><path d="M18.2083 35.4583 27.7917 35.4583C28.6062 35.4583 29.2292 36.0812 29.2292 36.8958 29.2292 37.7104 28.6062 38.3333 27.7917 38.3333L18.2083 38.3333C17.3937 38.3333 16.7708 37.7104 16.7708 36.8958 16.7708 36.0812 17.3937 35.4583 18.2083 35.4583Z" fill="#F2F2F2" transform="matrix(6.12323e-17 1 -1.02174 6.25635e-17 120 78.0001)"/><path d="M19.8854 40.25C20.0292 41.8792 21.3708 43.125 23 43.125 24.6292 43.125 25.9708 41.8792 26.1146 40.25L19.8854 40.25Z" fill="#F2F2F2" transform="matrix(6.12323e-17 1 -1.02174 6.25635e-17 120 78.0001)"/><path d="M23 2.875C23 2.875 23 2.875 23 2.875 23 2.875 23 2.875 23 2.875 16.1958 2.92292 10.6854 8.38542 10.5417 15.1896L10.5417 15.6208C10.5896 17.1063 10.8771 18.5438 11.4042 19.9333 11.9312 21.2271 12.65 22.425 13.5604 23.4792 14.7104 24.725 15.9562 27.1687 16.4833 28.2229 16.6271 28.5583 16.9625 28.75 17.3458 28.75L28.6542 28.75C29.0375 28.75 29.3729 28.5583 29.5167 28.2229 30.0437 27.1687 31.2896 24.725 32.4396 23.4792 33.35 22.425 34.1167 21.2271 34.5958 19.9333 35.1229 18.5438 35.4104 17.1063 35.4583 15.6208L35.4583 15.1896C35.3146 8.38542 29.8042 2.92292 23 2.875ZM32.5833 15.5729C32.5354 16.7229 32.2958 17.8729 31.9125 18.9271 31.5292 19.8854 31.0021 20.7958 30.2833 21.5625 29.1812 22.9042 28.2229 24.3417 27.5042 25.875L23 25.875 18.5438 25.875C17.7771 24.3417 16.8187 22.9042 15.7646 21.5625 15.0938 20.7958 14.5187 19.8854 14.1354 18.9271 13.7042 17.8729 13.5125 16.7229 13.4646 15.5729L13.4646 15.1896C13.5604 9.96667 17.825 5.75 23.0479 5.70208L23.0479 5.70208 23.0479 5.70208C23.0479 5.70208 23.0479 5.70208 23.0479 5.70208 23.0479 5.70208 23.0479 5.70208 23.0479 5.70208L23.0479 5.70208 23.0479 5.70208C28.2708 5.75 32.5354 9.91875 32.6312 15.1896L32.6312 15.5729Z" fill="#F2F2F2" transform="matrix(6.12323e-17 1 -1.02174 6.25635e-17 120 78.0001)"/></g></g></g></g></svg>