<svg width="55" height="54" xmlns="http://www.w3.org/2000/svg" xmlns:xlink="http://www.w3.org/1999/xlink" overflow="hidden"><defs><filter id="fx0" x="-10%" y="-10%" width="120%" height="120%" filterUnits="userSpaceOnUse" primitiveUnits="userSpaceOnUse"><feComponentTransfer color-interpolation-filters="sRGB"><feFuncR type="discrete" tableValues="0 0"/><feFuncG type="discrete" tableValues="0 0"/><feFuncB type="discrete" tableValues="0 0"/><feFuncA type="linear" slope="0.4" intercept="0"/></feComponentTransfer><feGaussianBlur stdDeviation="1.77778 1.77778"/></filter><clipPath id="clip1"><rect x="69" y="179" width="55" height="54"/></clipPath><clipPath id="clip2"><rect x="5" y="7" width="47" height="43"/></clipPath><clipPath id="clip3"><rect x="0" y="0" width="57" height="56"/></clipPath><clipPath id="clip4"><rect x="7" y="7" width="43" height="42"/></clipPath><clipPath id="clip5"><rect x="7" y="7" width="43" height="42"/></clipPath><clipPath id="clip6"><rect x="7" y="7" width="43" height="42"/></clipPath><clipPath id="clip7"><rect x="75" y="181" width="43" height="42"/></clipPath><clipPath id="clip8"><rect x="75" y="181" width="43" height="42"/></clipPath><clipPath id="clip9"><rect x="75" y="181" width="43" height="42"/></clipPath></defs><g clip-path="url(#clip1)" transform="translate(-69 -179)"><g clip-path="url(#clip2)" filter="url(#fx0)" transform="translate(68 178)"><g clip-path="url(#clip3)"><g clip-path="url(#clip4)"><g clip-path="url(#clip5)"><g clip-path="url(#clip6)"><path d="M7.6125 7.4375C6.78615 7.44231 6.12019 8.11611 6.125 8.94246 6.125 8.94246 6.125 8.9425 6.125 8.9425L6.125 27.09C6.16267 27.8719 6.8271 28.4753 7.60904 28.4377 7.61018 28.4376 7.61136 28.4375 7.6125 28.4375L12.25 28.4375 12.25 34.5625 18.025 28.4375 34.4487 28.4375C35.2316 28.4424 35.8701 27.8117 35.875 27.0288 35.875 27.0288 35.875 27.0287 35.875 27.0287L35.875 8.9425 35.875 8.9425C35.8799 8.11615 35.2139 7.44236 34.3875 7.4375 34.3875 7.4375 34.3875 7.4375 34.3875 7.4375ZM32.8125 20.5625 27.5625 20.5625 27.5625 18.8125 32.8125 18.8125ZM24.5 22.3125 32.8125 22.3125 32.8125 24.0625 24.5 24.0625ZM17.9375 22.3125 22.75 22.3125 22.75 24.0625 17.9375 24.0625ZM16.625 18.8125 25.375 18.8125 25.375 20.5625 16.625 20.5625ZM11.375 22.3125 16.1875 22.3125 16.1875 24.0625 11.375 24.0625ZM9.1875 18.8125 14.875 18.8125 14.875 20.5625 9.1875 20.5625Z" fill="#F2F2F2" transform="matrix(1.02381 0 0 1 7 7)"/></g></g></g></g></g><g clip-path="url(#clip7)"><g clip-path="url(#clip8)"><g clip-path="url(#clip9)"><path d="M7.6125 7.4375C6.78615 7.44231 6.12019 8.11611 6.125 8.94246 6.125 8.94246 6.125 8.9425 6.125 8.9425L6.125 27.09C6.16267 27.8719 6.8271 28.4753 7.60904 28.4377 7.61018 28.4376 7.61136 28.4375 7.6125 28.4375L12.25 28.4375 12.25 34.5625 18.025 28.4375 34.4487 28.4375C35.2316 28.4424 35.8701 27.8117 35.875 27.0288 35.875 27.0288 35.875 27.0287 35.875 27.0287L35.875 8.9425 35.875 8.9425C35.8799 8.11615 35.2139 7.44236 34.3875 7.4375 34.3875 7.4375 34.3875 7.4375 34.3875 7.4375ZM32.8125 20.5625 27.5625 20.5625 27.5625 18.8125 32.8125 18.8125ZM24.5 22.3125 32.8125 22.3125 32.8125 24.0625 24.5 24.0625ZM17.9375 22.3125 22.75 22.3125 22.75 24.0625 17.9375 24.0625ZM16.625 18.8125 25.375 18.8125 25.375 20.5625 16.625 20.5625ZM11.375 22.3125 16.1875 22.3125 16.1875 24.0625 11.375 24.0625ZM9.1875 18.8125 14.875 18.8125 14.875 20.5625 9.1875 20.5625Z" fill="#F2F2F2" transform="matrix(1.02381 0 0 1 75 181)"/></g></g></g></g></svg>